<svg width="239" height="341" viewBox="0 0 239 341" fill="none" xmlns="http://www.w3.org/2000/svg">
<rect width="238.004" height="341" fill="#FFCE00"/>
<path d="M26.6506 223.068L29.6733 231.639H29.7926L32.8153 223.068H34.108L30.3693 233.25H29.0966L25.358 223.068H26.6506ZM38.0256 233.409C37.2898 233.409 36.6551 233.247 36.1214 232.922C35.5911 232.594 35.1818 232.136 34.8935 231.55C34.6084 230.96 34.4659 230.274 34.4659 229.491C34.4659 228.709 34.6084 228.02 34.8935 227.423C35.1818 226.823 35.5829 226.356 36.0966 226.021C36.6136 225.683 37.2169 225.514 37.9062 225.514C38.304 225.514 38.6967 225.58 39.0845 225.713C39.4723 225.846 39.8253 226.061 40.1435 226.359C40.4616 226.654 40.7152 227.045 40.9041 227.533C41.093 228.02 41.1875 228.62 41.1875 229.332V229.83H35.3011V228.815H39.9943C39.9943 228.384 39.9081 228 39.7358 227.662C39.5668 227.324 39.3248 227.057 39.0099 226.862C38.6984 226.666 38.3305 226.568 37.9062 226.568C37.4389 226.568 37.0346 226.684 36.6932 226.916C36.3551 227.145 36.0949 227.443 35.9126 227.811C35.7304 228.179 35.6392 228.573 35.6392 228.994V229.67C35.6392 230.247 35.7386 230.736 35.9375 231.137C36.1397 231.535 36.4197 231.838 36.7777 232.047C37.1357 232.252 37.5516 232.355 38.0256 232.355C38.3338 232.355 38.6122 232.312 38.8608 232.226C39.1127 232.136 39.3298 232.004 39.5121 231.828C39.6944 231.649 39.8352 231.427 39.9347 231.162L41.0682 231.48C40.9489 231.865 40.7483 232.203 40.4666 232.494C40.1849 232.783 39.8369 233.008 39.4226 233.17C39.0083 233.33 38.5426 233.409 38.0256 233.409ZM42.9723 233.25V225.614H44.1058V226.767H44.1854C44.3246 226.389 44.5765 226.083 44.9411 225.847C45.3056 225.612 45.7166 225.494 46.174 225.494C46.2602 225.494 46.3679 225.496 46.4972 225.499C46.6264 225.503 46.7242 225.508 46.7905 225.514V226.707C46.7507 226.697 46.6596 226.683 46.517 226.663C46.3778 226.639 46.2304 226.628 46.0746 226.628C45.7034 226.628 45.3719 226.706 45.0803 226.862C44.7919 227.014 44.5632 227.226 44.3942 227.498C44.2285 227.766 44.1456 228.073 44.1456 228.418V233.25H42.9723ZM53.5904 227.324L52.5364 227.622C52.4701 227.446 52.3723 227.276 52.2431 227.11C52.1171 226.941 51.9448 226.802 51.726 226.692C51.5073 226.583 51.2272 226.528 50.8858 226.528C50.4185 226.528 50.0291 226.636 49.7175 226.852C49.4093 227.064 49.2551 227.334 49.2551 227.662C49.2551 227.954 49.3612 228.184 49.5733 228.353C49.7855 228.522 50.1169 228.663 50.5676 228.776L51.7012 229.054C52.3839 229.22 52.8927 229.473 53.2275 229.815C53.5622 230.153 53.7296 230.589 53.7296 231.122C53.7296 231.56 53.6036 231.951 53.3517 232.295C53.1032 232.64 52.7551 232.912 52.3077 233.111C51.8603 233.31 51.3399 233.409 50.7466 233.409C49.9677 233.409 49.3231 233.24 48.8127 232.902C48.3023 232.564 47.9791 232.07 47.8432 231.42L48.9569 231.142C49.0629 231.553 49.2634 231.861 49.5584 232.067C49.8567 232.272 50.2462 232.375 50.7267 232.375C51.2736 232.375 51.7078 232.259 52.0293 232.027C52.3541 231.792 52.5165 231.51 52.5165 231.182C52.5165 230.917 52.4237 230.695 52.2381 230.516C52.0525 230.333 51.7675 230.197 51.383 230.108L50.1103 229.81C49.4109 229.644 48.8972 229.387 48.5691 229.039C48.2443 228.688 48.0819 228.249 48.0819 227.722C48.0819 227.291 48.2028 226.91 48.4448 226.578C48.69 226.247 49.0231 225.987 49.4441 225.798C49.8683 225.609 50.3489 225.514 50.8858 225.514C51.6415 225.514 52.2348 225.68 52.6657 226.011C53.0998 226.343 53.4081 226.78 53.5904 227.324ZM55.4957 233.25V225.614H56.669V233.25H55.4957ZM56.0923 224.341C55.8636 224.341 55.6664 224.263 55.5007 224.107C55.3383 223.951 55.2571 223.764 55.2571 223.545C55.2571 223.327 55.3383 223.139 55.5007 222.984C55.6664 222.828 55.8636 222.75 56.0923 222.75C56.321 222.75 56.5166 222.828 56.679 222.984C56.8447 223.139 56.9276 223.327 56.9276 223.545C56.9276 223.764 56.8447 223.951 56.679 224.107C56.5166 224.263 56.321 224.341 56.0923 224.341ZM61.9203 233.409C61.2309 233.409 60.626 233.245 60.1056 232.917C59.5886 232.589 59.1842 232.13 58.8926 231.54C58.6042 230.95 58.46 230.26 58.46 229.472C58.46 228.676 58.6042 227.982 58.8926 227.388C59.1842 226.795 59.5886 226.335 60.1056 226.006C60.626 225.678 61.2309 225.514 61.9203 225.514C62.6097 225.514 63.2129 225.678 63.7299 226.006C64.2503 226.335 64.6547 226.795 64.943 227.388C65.2347 227.982 65.3805 228.676 65.3805 229.472C65.3805 230.26 65.2347 230.95 64.943 231.54C64.6547 232.13 64.2503 232.589 63.7299 232.917C63.2129 233.245 62.6097 233.409 61.9203 233.409ZM61.9203 232.355C62.444 232.355 62.8748 232.221 63.2129 231.952C63.551 231.684 63.8012 231.331 63.9636 230.893C64.126 230.456 64.2072 229.982 64.2072 229.472C64.2072 228.961 64.126 228.486 63.9636 228.045C63.8012 227.604 63.551 227.248 63.2129 226.976C62.8748 226.704 62.444 226.568 61.9203 226.568C61.3966 226.568 60.9657 226.704 60.6277 226.976C60.2896 227.248 60.0394 227.604 59.877 228.045C59.7145 228.486 59.6333 228.961 59.6333 229.472C59.6333 229.982 59.7145 230.456 59.877 230.893C60.0394 231.331 60.2896 231.684 60.6277 231.952C60.9657 232.221 61.3966 232.355 61.9203 232.355ZM68.3448 228.656V233.25H67.1715V225.614H68.305V226.807H68.4045C68.5835 226.419 68.8552 226.107 69.2198 225.872C69.5844 225.634 70.055 225.514 70.6317 225.514C71.1488 225.514 71.6012 225.62 71.989 225.832C72.3768 226.041 72.6784 226.359 72.8938 226.787C73.1093 227.211 73.217 227.748 73.217 228.398V233.25H72.0437V228.477C72.0437 227.877 71.8879 227.41 71.5763 227.075C71.2648 226.737 70.8372 226.568 70.2937 226.568C69.9192 226.568 69.5844 226.649 69.2894 226.812C68.9978 226.974 68.7674 227.211 68.5984 227.523C68.4293 227.834 68.3448 228.212 68.3448 228.656ZM82.8581 223.068V233.25H81.6252V224.361H81.5655L79.0797 226.011V224.759L81.6252 223.068H82.8581ZM86.0598 233.33C85.8146 233.33 85.6041 233.242 85.4284 233.066C85.2528 232.89 85.165 232.68 85.165 232.435C85.165 232.189 85.2528 231.979 85.4284 231.803C85.6041 231.628 85.8146 231.54 86.0598 231.54C86.3051 231.54 86.5156 231.628 86.6912 231.803C86.8669 231.979 86.9547 232.189 86.9547 232.435C86.9547 232.597 86.9133 232.746 86.8304 232.882C86.7509 233.018 86.6432 233.127 86.5073 233.21C86.3747 233.29 86.2256 233.33 86.0598 233.33ZM92.0059 233.389C91.2568 233.389 90.6188 233.185 90.0918 232.778C89.5648 232.367 89.1621 231.772 88.8837 230.993C88.6053 230.211 88.4661 229.266 88.4661 228.159C88.4661 227.059 88.6053 226.119 88.8837 225.34C89.1654 224.558 89.5698 223.961 90.0968 223.55C90.6271 223.136 91.2634 222.929 92.0059 222.929C92.7483 222.929 93.383 223.136 93.91 223.55C94.4403 223.961 94.8446 224.558 95.123 225.34C95.4048 226.119 95.5456 227.059 95.5456 228.159C95.5456 229.266 95.4064 230.211 95.128 230.993C94.8496 231.772 94.4469 232.367 93.9199 232.778C93.3929 233.185 92.7549 233.389 92.0059 233.389ZM92.0059 232.295C92.7483 232.295 93.325 231.937 93.736 231.222C94.147 230.506 94.3525 229.485 94.3525 228.159C94.3525 227.277 94.258 226.527 94.0691 225.907C93.8835 225.287 93.615 224.815 93.2637 224.49C92.9157 224.165 92.4964 224.003 92.0059 224.003C91.2701 224.003 90.695 224.366 90.2807 225.092C89.8664 225.814 89.6593 226.837 89.6593 228.159C89.6593 229.041 89.7521 229.79 89.9377 230.406C90.1233 231.023 90.3901 231.492 90.7381 231.813C91.0894 232.135 91.512 232.295 92.0059 232.295Z" fill="black"/>
<line x1="25" y1="207.5" x2="181.007" y2="207.5" stroke="black"/>
<g clip-path="url(#clip0_577_207885)">
<path d="M38.3766 112.49H36.5266C36.4166 111.96 36.2266 111.49 35.9566 111.09C35.6866 110.69 35.3566 110.35 34.9766 110.07C34.5966 109.79 34.1666 109.59 33.6966 109.45C33.2266 109.31 32.7366 109.24 32.2366 109.24C31.3066 109.24 30.4766 109.47 29.7266 109.94C28.9766 110.41 28.3866 111.1 27.9466 112.01C27.5066 112.92 27.2866 114.04 27.2866 115.36C27.2866 116.68 27.5066 117.8 27.9466 118.71C28.3866 119.62 28.9866 120.31 29.7266 120.78C30.4766 121.25 31.3066 121.48 32.2366 121.48C32.7466 121.48 33.2266 121.41 33.6966 121.27C34.1666 121.13 34.5866 120.92 34.9766 120.65C35.3566 120.37 35.6866 120.03 35.9566 119.63C36.2266 119.23 36.4166 118.76 36.5266 118.23H38.3766C38.2366 119.01 37.9866 119.71 37.6166 120.33C37.2466 120.95 36.7966 121.47 36.2466 121.9C35.6966 122.33 35.0866 122.66 34.4066 122.88C33.7266 123.1 33.0066 123.22 32.2366 123.22C30.9366 123.22 29.7766 122.9 28.7666 122.26C27.7466 121.62 26.9566 120.72 26.3766 119.55C25.7966 118.38 25.5066 116.98 25.5066 115.37C25.5066 113.76 25.7966 112.37 26.3766 111.19C26.9566 110.02 27.7566 109.11 28.7666 108.48C29.7766 107.84 30.9366 107.53 32.2366 107.53C33.0066 107.53 33.7266 107.64 34.4066 107.87C35.0866 108.09 35.6966 108.42 36.2466 108.85C36.7966 109.28 37.2466 109.8 37.6166 110.42C37.9866 111.03 38.2366 111.73 38.3766 112.52V112.49Z" fill="black"/>
<path d="M42.3367 107.72V122.99H40.5767V107.72H42.3367Z" fill="black"/>
<path d="M46.1567 109.63C45.8167 109.63 45.5167 109.51 45.2767 109.28C45.0267 109.05 44.9067 108.77 44.9067 108.44C44.9067 108.11 45.0267 107.83 45.2767 107.6C45.5267 107.37 45.8167 107.25 46.1567 107.25C46.4967 107.25 46.7967 107.37 47.0367 107.6C47.2767 107.83 47.4067 108.11 47.4067 108.44C47.4067 108.77 47.2867 109.05 47.0367 109.28C46.7867 109.51 46.4967 109.63 46.1567 109.63ZM45.2567 122.99V111.54H47.0167V122.99H45.2567Z" fill="black"/>
<path d="M51.7068 116.1V122.99H49.9468V111.54H51.6468V113.33H51.7968C52.0668 112.75 52.4768 112.28 53.0168 111.92C53.5568 111.56 54.2668 111.39 55.1368 111.39C55.9168 111.39 56.5868 111.55 57.1768 111.86C57.7568 112.18 58.2168 112.65 58.5368 113.29C58.8568 113.93 59.0168 114.74 59.0168 115.71V122.99H57.2568V115.83C57.2568 114.93 57.0268 114.23 56.5568 113.72C56.0868 113.22 55.4468 112.96 54.6368 112.96C54.0768 112.96 53.5768 113.08 53.1368 113.33C52.6968 113.58 52.3468 113.93 52.0968 114.4C51.8468 114.87 51.7168 115.43 51.7168 116.1H51.7068Z" fill="black"/>
<path d="M62.5867 109.63C62.2467 109.63 61.9467 109.51 61.7067 109.28C61.4567 109.05 61.3367 108.77 61.3367 108.44C61.3367 108.11 61.4567 107.83 61.7067 107.6C61.9567 107.37 62.2467 107.25 62.5867 107.25C62.9267 107.25 63.2267 107.37 63.4667 107.6C63.7067 107.83 63.8367 108.11 63.8367 108.44C63.8367 108.77 63.7167 109.05 63.4667 109.28C63.2167 109.51 62.9267 109.63 62.5867 109.63ZM61.6967 122.99V111.54H63.4567V122.99H61.6967Z" fill="black"/>
<path d="M74.1166 114.1L72.5366 114.55C72.4366 114.29 72.2966 114.03 72.0966 113.78C71.8966 113.53 71.6466 113.32 71.3166 113.16C70.9866 113 70.5666 112.91 70.0566 112.91C69.3566 112.91 68.7666 113.07 68.3066 113.39C67.8466 113.71 67.6066 114.12 67.6066 114.61C67.6066 115.05 67.7666 115.39 68.0866 115.65C68.4066 115.9 68.8966 116.11 69.5766 116.28L71.2766 116.7C72.2966 116.95 73.0666 117.33 73.5666 117.84C74.0666 118.35 74.3166 119.01 74.3166 119.81C74.3166 120.47 74.1266 121.05 73.7566 121.57C73.3766 122.09 72.8566 122.49 72.1866 122.79C71.5166 123.09 70.7366 123.24 69.8466 123.24C68.6766 123.24 67.7066 122.99 66.9466 122.48C66.1766 121.97 65.6966 121.23 65.4966 120.26L67.1666 119.84C67.3266 120.46 67.6266 120.92 68.0766 121.23C68.5266 121.54 69.1066 121.69 69.8266 121.69C70.6466 121.69 71.2966 121.52 71.7866 121.16C72.2666 120.81 72.5166 120.39 72.5166 119.9C72.5166 119.5 72.3766 119.17 72.0966 118.9C71.8166 118.63 71.3866 118.43 70.8166 118.29L68.9066 117.84C67.8566 117.59 67.0866 117.2 66.5966 116.68C66.1066 116.16 65.8666 115.5 65.8666 114.71C65.8666 114.06 66.0466 113.49 66.4166 113C66.7866 112.51 67.2866 112.11 67.9166 111.83C68.5466 111.55 69.2666 111.41 70.0766 111.41C71.2066 111.41 72.0966 111.66 72.7466 112.16C73.3966 112.66 73.8566 113.31 74.1266 114.13L74.1166 114.1Z" fill="black"/>
<path d="M76.9568 127.29C76.6568 127.29 76.3968 127.27 76.1568 127.22C75.9268 127.17 75.7668 127.13 75.6768 127.08L76.1268 125.53C76.5568 125.64 76.9368 125.68 77.2568 125.65C77.5868 125.62 77.8768 125.47 78.1368 125.21C78.3968 124.95 78.6268 124.53 78.8468 123.95L79.1768 123.06L74.9368 111.55H76.8468L80.0068 120.68H80.1268L83.2868 111.55H85.1968L80.3368 124.67C80.1168 125.26 79.8468 125.75 79.5268 126.14C79.2068 126.53 78.8268 126.82 78.4068 127.01C77.9768 127.2 77.5068 127.29 76.9668 127.29H76.9568Z" fill="black"/>
<path d="M94.2267 114.1L92.6467 114.55C92.5467 114.29 92.4067 114.03 92.2067 113.78C92.0067 113.53 91.7567 113.32 91.4267 113.16C91.0967 113 90.6767 112.91 90.1667 112.91C89.4667 112.91 88.8767 113.07 88.4167 113.39C87.9567 113.71 87.7167 114.12 87.7167 114.61C87.7167 115.05 87.8767 115.39 88.1967 115.65C88.5167 115.9 89.0067 116.11 89.6867 116.28L91.3867 116.7C92.4067 116.95 93.1767 117.33 93.6767 117.84C94.1767 118.35 94.4267 119.01 94.4267 119.81C94.4267 120.47 94.2367 121.05 93.8667 121.57C93.4867 122.09 92.9667 122.49 92.2967 122.79C91.6267 123.09 90.8467 123.24 89.9567 123.24C88.7867 123.24 87.8167 122.99 87.0567 122.48C86.2867 121.97 85.8067 121.23 85.6067 120.26L87.2767 119.84C87.4367 120.46 87.7367 120.92 88.1867 121.23C88.6367 121.54 89.2167 121.69 89.9367 121.69C90.7567 121.69 91.4067 121.52 91.8967 121.16C92.3767 120.81 92.6267 120.39 92.6267 119.9C92.6267 119.5 92.4867 119.17 92.2067 118.9C91.9267 118.63 91.4967 118.43 90.9267 118.29L89.0167 117.84C87.9667 117.59 87.1967 117.2 86.7067 116.68C86.2167 116.16 85.9767 115.5 85.9767 114.71C85.9767 114.06 86.1567 113.49 86.5267 113C86.8967 112.51 87.3967 112.11 88.0267 111.83C88.6567 111.55 89.3767 111.41 90.1867 111.41C91.3167 111.41 92.2067 111.66 92.8567 112.16C93.5067 112.66 93.9667 113.31 94.2367 114.13L94.2267 114.1Z" fill="black"/>
<path d="M36.0875 141.72C36.0364 141.081 35.7967 140.582 35.3684 140.224C34.9465 139.866 34.3041 139.687 33.4412 139.687C32.8914 139.687 32.4408 139.754 32.0892 139.888C31.7441 140.016 31.4884 140.192 31.3222 140.416C31.156 140.64 31.0697 140.895 31.0633 141.183C31.0505 141.419 31.0921 141.634 31.188 141.825C31.2902 142.011 31.45 142.18 31.6674 142.333C31.8847 142.48 32.1628 142.615 32.5015 142.736C32.8403 142.858 33.243 142.966 33.7096 143.062L35.3205 143.407C36.4071 143.637 37.3372 143.941 38.1106 144.318C38.884 144.695 39.5168 145.14 40.009 145.651C40.5012 146.156 40.8624 146.725 41.0925 147.358C41.329 147.99 41.4504 148.681 41.4568 149.429C41.4504 150.72 41.1276 151.813 40.4884 152.708C39.8492 153.603 38.9352 154.283 37.7462 154.75C36.5637 155.217 35.1415 155.45 33.4795 155.45C31.7728 155.45 30.2835 155.197 29.0115 154.692C27.7459 154.188 26.7615 153.411 26.0584 152.363C25.3616 151.308 25.0101 149.959 25.0037 148.316H30.0662C30.0981 148.917 30.2483 149.422 30.5168 149.831C30.7853 150.24 31.1624 150.55 31.6482 150.761C32.1404 150.972 32.7253 151.078 33.4028 151.078C33.9717 151.078 34.4479 151.007 34.8314 150.867C35.215 150.726 35.5058 150.531 35.704 150.282C35.9021 150.033 36.0044 149.748 36.0108 149.429C36.0044 149.128 35.9053 148.866 35.7136 148.642C35.5282 148.412 35.2214 148.208 34.7931 148.029C34.3648 147.843 33.7863 147.671 33.0576 147.511L31.1017 147.089C29.363 146.712 27.9919 146.082 26.9884 145.2C25.9912 144.312 25.4959 143.101 25.5022 141.566C25.4959 140.32 25.8282 139.23 26.4994 138.297C27.177 137.357 28.1134 136.625 29.3087 136.101C30.5104 135.577 31.8879 135.315 33.4412 135.315C35.0264 135.315 36.3975 135.58 37.5545 136.111C38.7114 136.641 39.6031 137.389 40.2296 138.354C40.8624 139.313 41.182 140.435 41.1884 141.72H36.0875Z" fill="black"/>
<path d="M46.7831 160.723C46.1759 160.723 45.5974 160.676 45.0477 160.58C44.4979 160.49 44.0153 160.366 43.5999 160.206L44.7504 156.447C45.4024 156.677 45.9585 156.776 46.4188 156.744C46.879 156.719 47.2178 156.518 47.4351 156.14L47.5501 155.872L42.3726 140.493H47.8953L50.2732 150.694H50.4266L52.8428 140.493H58.4038L53.0345 156.447C52.7661 157.253 52.3761 157.978 51.8648 158.624C51.3598 159.269 50.695 159.781 49.8705 160.158C49.0459 160.535 48.0168 160.723 46.7831 160.723Z" fill="black"/>
<path d="M73.3707 145.287H68.5C68.4744 144.986 68.3689 144.727 68.1836 144.51C67.9982 144.293 67.7585 144.126 67.4645 144.011C67.1768 143.89 66.8572 143.829 66.5057 143.829C66.0518 143.829 65.6619 143.912 65.3359 144.078C65.0099 144.245 64.8501 144.481 64.8565 144.788C64.8501 145.005 64.9428 145.207 65.1346 145.392C65.3327 145.577 65.713 145.721 66.2755 145.824L69.267 146.36C70.7755 146.635 71.8973 147.099 72.6324 147.751C73.3739 148.396 73.7478 149.262 73.7542 150.349C73.7478 151.397 73.4346 152.308 72.8146 153.082C72.201 153.849 71.3604 154.443 70.2929 154.865C69.2319 155.281 68.0206 155.488 66.6591 155.488C64.4091 155.488 62.6481 155.028 61.376 154.108C60.1104 153.187 59.4041 151.973 59.2571 150.464H64.5113C64.5816 150.931 64.8118 151.292 65.2017 151.548C65.598 151.797 66.0966 151.922 66.6974 151.922C67.1832 151.922 67.5827 151.838 67.8959 151.672C68.2155 151.506 68.3785 151.27 68.3849 150.963C68.3785 150.681 68.2379 150.458 67.963 150.292C67.6946 150.125 67.2727 149.991 66.6974 149.889L64.0895 149.429C62.5873 149.167 61.4623 148.668 60.7145 147.933C59.9666 147.198 59.5959 146.252 59.6022 145.095C59.5959 144.072 59.8643 143.206 60.4076 142.496C60.9574 141.781 61.7404 141.237 62.7567 140.866C63.7794 140.489 64.9907 140.301 66.3906 140.301C68.5191 140.301 70.1971 140.742 71.4243 141.624C72.658 142.506 73.3068 143.727 73.3707 145.287Z" fill="black"/>
<path d="M84.5647 140.493V144.328H74.8616V140.493H84.5647ZM76.7408 136.964H82.0334V150.484C82.0334 150.688 82.0686 150.861 82.1389 151.001C82.2092 151.136 82.3179 151.238 82.4649 151.308C82.6119 151.372 82.8005 151.404 83.0306 151.404C83.1904 151.404 83.3758 151.385 83.5867 151.346C83.804 151.308 83.9638 151.276 84.0661 151.251L84.8331 154.971C84.5966 155.041 84.2579 155.127 83.8168 155.23C83.3822 155.332 82.8644 155.399 82.2635 155.431C81.0491 155.495 80.0295 155.37 79.205 155.057C78.3804 154.737 77.7603 154.236 77.3449 153.552C76.9294 152.868 76.728 152.011 76.7408 150.982V136.964Z" fill="black"/>
<path d="M93.623 155.488C92.0506 155.488 90.6955 155.188 89.5577 154.587C88.4263 153.98 87.5538 153.11 86.9401 151.979C86.3329 150.841 86.0293 149.48 86.0293 147.895C86.0293 146.373 86.3361 145.044 86.9497 143.906C87.5633 142.768 88.4295 141.883 89.5481 141.25C90.6667 140.617 91.9866 140.301 93.5079 140.301C94.6202 140.301 95.6269 140.473 96.5282 140.819C97.4295 141.164 98.1997 141.665 98.8389 142.324C99.4781 142.976 99.9703 143.768 100.315 144.702C100.661 145.635 100.833 146.686 100.833 147.856V149.083H87.6784V146.169H95.9625C95.9561 145.747 95.8474 145.376 95.6365 145.056C95.432 144.73 95.1539 144.478 94.8023 144.299C94.4572 144.114 94.0641 144.021 93.623 144.021C93.1947 144.021 92.8016 144.114 92.4437 144.299C92.0857 144.478 91.7981 144.727 91.5807 145.047C91.3698 145.366 91.258 145.74 91.2452 146.169V149.314C91.2452 149.787 91.3442 150.208 91.5424 150.579C91.7405 150.95 92.025 151.241 92.3957 151.452C92.7665 151.663 93.2139 151.768 93.7381 151.768C94.1024 151.768 94.4348 151.717 94.7352 151.615C95.042 151.512 95.3041 151.365 95.5214 151.174C95.7388 150.976 95.8986 150.739 96.0008 150.464H100.833C100.667 151.487 100.274 152.375 99.6539 153.13C99.0339 153.877 98.2125 154.459 97.1898 154.875C96.1734 155.284 94.9845 155.488 93.623 155.488Z" fill="black"/>
<path d="M102.993 155.22V140.493H108.017V143.292H108.171C108.477 142.372 109.002 141.643 109.743 141.106C110.484 140.569 111.367 140.301 112.389 140.301C113.425 140.301 114.317 140.576 115.064 141.125C115.812 141.669 116.263 142.391 116.416 143.292H116.57C116.819 142.391 117.35 141.669 118.161 141.125C118.973 140.576 119.926 140.301 121.019 140.301C122.431 140.301 123.575 140.755 124.451 141.662C125.334 142.57 125.775 143.778 125.775 145.287V155.22H120.482V146.629C120.482 145.983 120.319 145.478 119.993 145.114C119.667 144.743 119.229 144.558 118.679 144.558C118.136 144.558 117.704 144.743 117.385 145.114C117.071 145.478 116.915 145.983 116.915 146.629V155.22H111.852V146.629C111.852 145.983 111.689 145.478 111.363 145.114C111.037 144.743 110.6 144.558 110.05 144.558C109.685 144.558 109.372 144.641 109.11 144.807C108.848 144.973 108.644 145.213 108.497 145.526C108.356 145.833 108.286 146.201 108.286 146.629V155.22H102.993Z" fill="black"/>
<path d="M43.8347 175.947H38.427C38.3886 175.5 38.2864 175.094 38.1202 174.729C37.9604 174.365 37.7367 174.052 37.449 173.79C37.1678 173.521 36.8258 173.317 36.4231 173.176C36.0204 173.029 35.5634 172.956 35.052 172.956C34.1571 172.956 33.3996 173.173 32.7796 173.608C32.166 174.042 31.6993 174.665 31.3797 175.477C31.0665 176.289 30.9099 177.264 30.9099 178.402C30.9099 179.603 31.0697 180.61 31.3893 181.422C31.7153 182.227 32.1851 182.835 32.7988 183.244C33.4124 183.646 34.1507 183.848 35.0136 183.848C35.5058 183.848 35.9469 183.787 36.3368 183.665C36.7267 183.538 37.0655 183.355 37.3531 183.119C37.6408 182.882 37.8741 182.598 38.0531 182.266C38.2384 181.927 38.3631 181.547 38.427 181.125L43.8347 181.163C43.7707 181.994 43.5374 182.841 43.1347 183.704C42.732 184.56 42.1599 185.353 41.4185 186.082C40.6834 186.804 39.7725 187.386 38.6859 187.827C37.5992 188.268 36.3368 188.488 34.8986 188.488C33.096 188.488 31.4788 188.102 30.047 187.328C28.6216 186.555 27.4934 185.417 26.6624 183.915C25.8378 182.413 25.4255 180.575 25.4255 178.402C25.4255 176.216 25.8474 174.375 26.6912 172.879C27.5349 171.377 28.6727 170.242 30.1045 169.475C31.5363 168.702 33.1343 168.315 34.8986 168.315C36.1386 168.315 37.2796 168.484 38.3215 168.823C39.3634 169.162 40.2775 169.657 41.0637 170.309C41.8499 170.955 42.4827 171.751 42.9622 172.697C43.4416 173.643 43.7324 174.726 43.8347 175.947Z" fill="black"/>
<path d="M53.4251 188.488C51.8271 188.488 50.4592 188.172 49.3214 187.539C48.1837 186.9 47.3111 186.011 46.7039 184.874C46.0967 183.729 45.793 182.403 45.793 180.895C45.793 179.386 46.0967 178.063 46.7039 176.925C47.3111 175.781 48.1837 174.892 49.3214 174.26C50.4592 173.62 51.8271 173.301 53.4251 173.301C55.0231 173.301 56.391 173.62 57.5288 174.26C58.6666 174.892 59.5391 175.781 60.1464 176.925C60.7536 178.063 61.0572 179.386 61.0572 180.895C61.0572 182.403 60.7536 183.729 60.1464 184.874C59.5391 186.011 58.6666 186.9 57.5288 187.539C56.391 188.172 55.0231 188.488 53.4251 188.488ZM53.4635 184.576C53.9109 184.576 54.2976 184.426 54.6236 184.126C54.9496 183.825 55.2021 183.397 55.3811 182.841C55.5601 182.285 55.6496 181.623 55.6496 180.856C55.6496 180.083 55.5601 179.421 55.3811 178.871C55.2021 178.315 54.9496 177.887 54.6236 177.587C54.2976 177.286 53.9109 177.136 53.4635 177.136C52.9905 177.136 52.5846 177.286 52.2458 177.587C51.907 177.887 51.6481 178.315 51.4692 178.871C51.2902 179.421 51.2007 180.083 51.2007 180.856C51.2007 181.623 51.2902 182.285 51.4692 182.841C51.6481 183.397 51.907 183.825 52.2458 184.126C52.5846 184.426 52.9905 184.576 53.4635 184.576Z" fill="black"/>
<path d="M68.4977 179.936V188.22H63.2051V173.493H68.2292V176.292H68.3826C68.7022 175.359 69.2647 174.627 70.0701 174.097C70.8819 173.566 71.8279 173.301 72.9082 173.301C73.9501 173.301 74.8546 173.54 75.6216 174.02C76.395 174.493 76.9927 175.145 77.4146 175.976C77.8428 176.807 78.0538 177.756 78.0474 178.824V188.22H72.7548V179.936C72.7612 179.207 72.5758 178.635 72.1987 178.219C71.8279 177.804 71.3102 177.596 70.6454 177.596C70.2107 177.596 69.8304 177.692 69.5044 177.884C69.1848 178.069 68.9387 178.338 68.7661 178.689C68.5936 179.034 68.5041 179.45 68.4977 179.936Z" fill="black"/>
<path d="M89.4811 173.493V177.328H79.6245V173.493H89.4811ZM81.5038 188.22V173.071C81.5038 171.856 81.7211 170.849 82.1558 170.05C82.5904 169.251 83.2041 168.654 83.9967 168.257C84.7893 167.861 85.7225 167.663 86.7964 167.663C87.4676 167.663 88.1196 167.714 88.7524 167.816C89.3916 167.919 89.8646 168.008 90.1714 168.085L89.4044 171.882C89.2126 171.824 88.9889 171.779 88.7332 171.748C88.4775 171.709 88.2538 171.69 88.062 171.69C87.5634 171.69 87.2279 171.795 87.0553 172.006C86.8827 172.217 86.7964 172.495 86.7964 172.841V188.22H81.5038Z" fill="black"/>
<path d="M91.5232 188.22V173.492H96.8158V188.22H91.5232ZM94.1695 171.958C93.4536 171.958 92.84 171.722 92.3286 171.249C91.8173 170.776 91.5616 170.207 91.5616 169.542C91.5616 168.877 91.8173 168.308 92.3286 167.835C92.84 167.362 93.4536 167.126 94.1695 167.126C94.8918 167.126 95.5055 167.362 96.0104 167.835C96.5218 168.308 96.7775 168.877 96.7775 169.542C96.7775 170.207 96.5218 170.776 96.0104 171.249C95.5055 171.722 94.8918 171.958 94.1695 171.958Z" fill="black"/>
<path d="M106.608 193.896C105.131 193.896 103.865 193.688 102.811 193.273C101.762 192.864 100.947 192.301 100.366 191.585C99.7904 190.876 99.4676 190.074 99.3973 189.179H104.498C104.549 189.441 104.677 189.655 104.882 189.821C105.086 189.994 105.348 190.121 105.668 190.205C105.994 190.288 106.358 190.329 106.761 190.329C107.445 190.329 108.011 190.169 108.458 189.85C108.912 189.53 109.139 188.974 109.139 188.181V185.689H108.985C108.794 186.187 108.5 186.612 108.103 186.964C107.707 187.309 107.231 187.574 106.675 187.76C106.119 187.939 105.508 188.028 104.843 188.028C103.795 188.028 102.83 187.785 101.948 187.299C101.072 186.814 100.369 186.043 99.8384 184.989C99.3142 183.934 99.0522 182.556 99.0522 180.856C99.0522 179.079 99.327 177.635 99.8767 176.522C100.433 175.41 101.149 174.595 102.025 174.077C102.907 173.56 103.833 173.301 104.805 173.301C105.534 173.301 106.173 173.429 106.723 173.684C107.272 173.934 107.733 174.269 108.103 174.691C108.474 175.107 108.755 175.564 108.947 176.062H109.062V173.493H114.355V188.181C114.355 189.377 114.032 190.4 113.386 191.25C112.747 192.106 111.846 192.761 110.683 193.215C109.519 193.669 108.161 193.896 106.608 193.896ZM106.799 184.27C107.285 184.27 107.701 184.135 108.046 183.867C108.397 183.592 108.666 183.202 108.851 182.697C109.043 182.186 109.139 181.572 109.139 180.856C109.139 180.127 109.043 179.504 108.851 178.987C108.666 178.462 108.397 178.063 108.046 177.788C107.701 177.507 107.285 177.366 106.799 177.366C106.314 177.366 105.898 177.507 105.553 177.788C105.214 178.063 104.952 178.462 104.767 178.987C104.588 179.504 104.498 180.127 104.498 180.856C104.498 181.585 104.588 182.205 104.767 182.716C104.952 183.221 105.214 183.608 105.553 183.876C105.898 184.139 106.314 184.27 106.799 184.27Z" fill="black"/>
<path d="M126.597 181.777V173.493H131.889V188.22H126.865V185.42H126.712C126.392 186.36 125.833 187.095 125.034 187.625C124.235 188.15 123.285 188.412 122.186 188.412C121.157 188.412 120.256 188.175 119.482 187.702C118.715 187.229 118.117 186.577 117.689 185.746C117.267 184.915 117.053 183.963 117.047 182.889V173.493H122.339V181.777C122.346 182.505 122.531 183.078 122.896 183.493C123.266 183.908 123.784 184.116 124.449 184.116C124.89 184.116 125.27 184.024 125.59 183.838C125.916 183.646 126.165 183.378 126.338 183.033C126.517 182.681 126.603 182.263 126.597 181.777Z" fill="black"/>
<path d="M134.581 188.22V173.493H139.72V176.292H139.874C140.142 175.257 140.567 174.499 141.149 174.02C141.737 173.54 142.424 173.301 143.21 173.301C143.441 173.301 143.668 173.32 143.891 173.358C144.121 173.39 144.342 173.438 144.553 173.502V178.018C144.291 177.929 143.968 177.862 143.584 177.817C143.201 177.772 142.872 177.75 142.597 177.75C142.079 177.75 141.612 177.868 141.197 178.104C140.788 178.335 140.465 178.661 140.229 179.082C139.992 179.498 139.874 179.987 139.874 180.549V188.22H134.581Z" fill="black"/>
<path d="M149.706 188.45C148.767 188.45 147.936 188.297 147.214 187.99C146.498 187.677 145.935 187.203 145.526 186.571C145.117 185.938 144.912 185.132 144.912 184.154C144.912 183.349 145.05 182.662 145.325 182.093C145.6 181.518 145.983 181.048 146.475 180.684C146.967 180.319 147.54 180.041 148.192 179.849C148.85 179.658 149.559 179.533 150.32 179.476C151.145 179.412 151.806 179.335 152.305 179.245C152.81 179.15 153.174 179.018 153.398 178.852C153.622 178.68 153.733 178.453 153.733 178.172V178.133C153.733 177.75 153.586 177.456 153.292 177.251C152.998 177.047 152.621 176.944 152.161 176.944C151.656 176.944 151.244 177.056 150.924 177.28C150.611 177.497 150.422 177.833 150.358 178.287H145.488C145.552 177.392 145.836 176.567 146.341 175.813C146.852 175.052 147.597 174.445 148.575 173.991C149.553 173.531 150.774 173.301 152.238 173.301C153.292 173.301 154.238 173.425 155.076 173.675C155.913 173.918 156.626 174.26 157.214 174.701C157.802 175.135 158.249 175.647 158.556 176.235C158.869 176.816 159.026 177.449 159.026 178.133V188.22H154.079V186.149H153.964C153.669 186.699 153.312 187.143 152.89 187.482C152.474 187.82 151.998 188.066 151.461 188.22C150.93 188.373 150.346 188.45 149.706 188.45ZM151.432 185.113C151.835 185.113 152.212 185.03 152.564 184.864C152.922 184.698 153.212 184.458 153.436 184.145C153.66 183.832 153.772 183.451 153.772 183.004V181.777C153.631 181.834 153.481 181.888 153.321 181.94C153.168 181.991 153.002 182.039 152.823 182.083C152.65 182.128 152.465 182.17 152.266 182.208C152.075 182.246 151.873 182.282 151.662 182.314C151.253 182.377 150.918 182.483 150.656 182.63C150.4 182.771 150.208 182.946 150.08 183.157C149.959 183.362 149.898 183.592 149.898 183.848C149.898 184.257 150.042 184.57 150.33 184.787C150.617 185.005 150.985 185.113 151.432 185.113Z" fill="black"/>
<path d="M170.338 173.493V177.328H160.634V173.493H170.338ZM162.514 169.964H167.806V183.484C167.806 183.688 167.841 183.861 167.912 184.001C167.982 184.136 168.091 184.238 168.238 184.308C168.385 184.372 168.573 184.404 168.803 184.404C168.963 184.404 169.149 184.385 169.36 184.346C169.577 184.308 169.737 184.276 169.839 184.251L170.606 187.971C170.369 188.041 170.031 188.127 169.59 188.23C169.155 188.332 168.637 188.399 168.036 188.431C166.822 188.495 165.802 188.37 164.978 188.057C164.153 187.737 163.533 187.236 163.118 186.552C162.702 185.868 162.501 185.011 162.514 183.982V169.964Z" fill="black"/>
<path d="M172.497 188.22V173.492H177.79V188.22H172.497ZM175.144 171.958C174.428 171.958 173.814 171.722 173.303 171.249C172.791 170.776 172.536 170.207 172.536 169.542C172.536 168.877 172.791 168.308 173.303 167.835C173.814 167.362 174.428 167.126 175.144 167.126C175.866 167.126 176.479 167.362 176.984 167.835C177.496 168.308 177.752 168.877 177.752 169.542C177.752 170.207 177.496 170.776 176.984 171.249C176.479 171.722 175.866 171.958 175.144 171.958Z" fill="black"/>
<path d="M187.582 188.488C185.984 188.488 184.616 188.172 183.478 187.539C182.34 186.9 181.468 186.011 180.86 184.874C180.253 183.729 179.95 182.403 179.95 180.895C179.95 179.386 180.253 178.063 180.86 176.925C181.468 175.781 182.34 174.892 183.478 174.26C184.616 173.62 185.984 173.301 187.582 173.301C189.18 173.301 190.548 173.62 191.685 174.26C192.823 174.892 193.696 175.781 194.303 176.925C194.91 178.063 195.214 179.386 195.214 180.895C195.214 182.403 194.91 183.729 194.303 184.874C193.696 186.011 192.823 186.9 191.685 187.539C190.548 188.172 189.18 188.488 187.582 188.488ZM187.62 184.576C188.067 184.576 188.454 184.426 188.78 184.126C189.106 183.825 189.359 183.397 189.538 182.841C189.717 182.285 189.806 181.623 189.806 180.856C189.806 180.083 189.717 179.421 189.538 178.871C189.359 178.315 189.106 177.887 188.78 177.587C188.454 177.286 188.067 177.136 187.62 177.136C187.147 177.136 186.741 177.286 186.402 177.587C186.064 177.887 185.805 178.315 185.626 178.871C185.447 179.421 185.357 180.083 185.357 180.856C185.357 181.623 185.447 182.285 185.626 182.841C185.805 183.397 186.064 183.825 186.402 184.126C186.741 184.426 187.147 184.576 187.62 184.576Z" fill="black"/>
<path d="M202.654 179.936V188.22H197.362V173.493H202.386V176.292H202.539C202.859 175.359 203.421 174.627 204.227 174.097C205.038 173.566 205.984 173.301 207.065 173.301C208.107 173.301 209.011 173.54 209.778 174.02C210.552 174.493 211.149 175.145 211.571 175.976C211.999 176.807 212.21 177.756 212.204 178.824V188.22H206.911V179.936C206.918 179.207 206.732 178.635 206.355 178.219C205.984 177.804 205.467 177.596 204.802 177.596C204.367 177.596 203.987 177.692 203.661 177.884C203.341 178.069 203.095 178.338 202.923 178.689C202.75 179.034 202.661 179.45 202.654 179.936Z" fill="black"/>
</g>
<defs>
<clipPath id="clip0_577_207885">
<rect width="188" height="87" fill="white" transform="translate(25.0037 107.25)"/>
</clipPath>
</defs>
</svg>
